<svg id="svg" version="1.1" xmlns="http://www.w3.org/2000/svg" xmlns:xlink="http://www.w3.org/1999/xlink" width="400" height="400" viewBox="0, 0, 400,400"><g id="svgg"><path id="path0" d="M203.906 135.550 C 189.175 139.507,178.580 151.028,165.006 177.850 C 161.108 185.553,157.718 191.810,156.887 192.837 C 156.859 192.872,155.104 193.195,152.987 193.556 C 140.509 195.679,131.515 203.499,135.755 208.538 C 138.774 212.125,143.278 211.173,155.782 204.302 C 160.006 201.980,162.066 202.570,172.032 208.954 C 181.094 214.758,187.017 215.092,195.313 210.266 C 201.333 206.764,208.984 197.434,208.984 193.595 C 208.984 190.822,207.139 191.574,202.312 196.316 C 194.576 203.915,191.625 204.052,177.734 197.461 C 174.404 195.881,171.115 194.443,170.426 194.267 L 169.172 193.945 171.542 191.016 C 175.928 185.596,177.912 182.227,187.880 163.281 C 195.323 149.135,201.052 142.650,205.759 143.043 C 210.981 143.480,209.561 151.589,202.992 158.846 C 196.923 165.551,206.227 164.061,213.106 157.227 C 224.985 145.425,219.066 131.479,203.906 135.550 M324.219 135.384 C 318.440 136.908,311.776 141.229,305.922 147.248 C 298.306 155.078,294.690 160.767,284.436 181.055 C 278.114 193.561,278.592 192.981,273.536 194.266 C 259.439 197.848,252.305 205.605,258.984 210.087 C 262.156 212.215,267.166 210.818,274.803 205.674 C 280.391 201.911,281.988 202.187,292.735 208.768 C 301.607 214.201,305.275 214.758,312.029 211.695 C 320.063 208.052,329.878 196.693,328.375 192.776 C 327.748 191.141,325.925 192.099,322.430 195.899 C 315.273 203.681,311.912 203.869,299.279 197.194 C 296.366 195.655,293.225 194.108,292.300 193.757 L 290.619 193.119 293.290 189.789 C 296.705 185.534,298.827 181.993,304.612 170.898 C 314.016 152.862,315.912 149.713,319.568 146.057 C 323.187 142.438,326.301 141.795,327.958 144.325 C 329.470 146.632,328.008 150.879,323.579 157.048 C 318.053 164.744,324.286 165.359,331.641 157.844 C 343.722 145.496,339.085 131.463,324.219 135.384 M65.625 156.058 C 41.915 161.837,41.622 195.796,65.234 201.345 C 72.121 202.963,78.213 201.150,79.538 197.087 L 80.356 194.579 79.226 194.111 C 78.604 193.854,78.147 193.535,78.210 193.404 C 78.273 193.272,78.579 192.504,78.889 191.698 C 79.462 190.214,79.576 190.178,81.473 190.889 C 81.807 191.014,82.813 189.506,82.813 188.880 C 82.813 188.800,82.269 188.615,81.605 188.469 C 80.608 188.250,80.437 188.057,80.620 187.364 C 80.742 186.901,81.050 185.601,81.304 184.473 L 81.765 182.422 83.666 182.422 C 85.346 182.422,85.610 182.306,85.947 181.420 C 86.459 180.075,86.460 180.078,85.400 180.078 C 84.890 180.078,83.923 179.968,83.252 179.834 L 82.031 179.590 82.031 176.957 L 82.031 174.325 83.844 174.077 C 84.840 173.940,86.224 173.828,86.919 173.828 C 88.454 173.828,88.850 172.318,88.436 168.043 C 87.649 159.901,75.672 153.608,65.625 156.058 M74.256 160.804 C 75.455 162.115,76.563 163.722,76.563 164.149 C 76.563 164.316,75.332 164.453,73.828 164.453 L 71.094 164.453 71.094 161.302 L 71.094 158.150 72.168 158.922 C 72.759 159.347,73.699 160.194,74.256 160.804 M68.750 161.523 L 68.750 164.453 66.211 164.453 C 64.814 164.453,63.672 164.348,63.672 164.220 C 63.672 163.462,67.796 158.594,68.439 158.594 C 68.610 158.594,68.750 159.912,68.750 161.523 M62.511 161.610 L 60.942 163.958 59.362 163.669 C 56.767 163.195,57.104 162.638,61.369 160.360 C 64.429 158.725,64.434 158.730,62.511 161.610 M79.102 160.258 C 79.961 160.689,81.358 161.588,82.207 162.256 L 83.749 163.470 82.207 163.744 C 79.615 164.204,78.976 164.118,78.708 163.273 C 78.571 162.839,77.845 161.682,77.097 160.701 C 75.573 158.705,75.871 158.639,79.102 160.258 M357.031 161.278 C 350.095 163.503,348.814 164.708,344.227 173.327 C 329.713 200.601,328.003 205.798,332.235 209.773 C 335.413 212.759,339.820 210.994,350.456 202.478 C 352.963 200.470,355.099 198.828,355.202 198.828 C 355.306 198.828,355.060 200.103,354.655 201.660 C 352.665 209.322,355.030 211.943,362.017 209.820 C 368.675 207.798,380.767 196.823,376.270 196.884 C 375.276 196.898,371.408 198.551,369.964 199.580 C 368.656 200.511,367.578 200.437,367.578 199.417 C 367.578 198.647,368.572 196.665,378.606 177.424 C 383.121 168.767,386.701 161.571,386.562 161.432 C 386.111 160.981,382.354 161.374,379.917 162.128 C 374.978 163.654,374.585 164.072,366.275 176.651 C 356.022 192.169,347.525 200.670,345.691 197.243 C 345.113 196.162,345.966 194.397,353.989 180.078 C 361.725 166.273,361.943 165.849,362.542 163.471 C 363.289 160.506,361.570 159.822,357.031 161.278 M236.210 161.888 C 229.434 164.675,229.540 164.544,221.460 179.858 C 211.519 198.697,209.926 203.354,211.860 207.923 C 214.273 213.624,220.332 211.590,233.165 200.770 C 235.502 198.800,236.006 198.511,235.793 199.264 C 233.365 207.844,234.076 209.989,239.323 209.922 C 244.068 209.861,248.038 207.937,253.373 203.110 C 259.522 197.546,259.051 195.317,252.427 198.633 C 246.371 201.665,246.179 202.318,257.841 180.197 C 268.657 159.678,268.366 160.550,264.168 161.216 C 256.861 162.374,255.880 163.256,247.058 176.602 C 238.270 189.897,230.706 198.027,227.547 197.574 C 225.400 197.266,226.597 194.475,236.055 177.734 C 244.346 163.059,244.862 160.920,240.105 160.947 C 239.209 160.952,237.457 161.375,236.210 161.888 M57.436 166.018 C 60.014 166.507,59.860 166.219,59.011 168.961 C 58.216 171.533,58.683 171.323,54.102 171.167 C 52.337 171.107,51.953 170.971,51.953 170.405 C 51.953 169.626,54.533 165.625,55.035 165.625 C 55.215 165.625,56.296 165.802,57.436 166.018 M87.059 168.384 C 88.613 171.210,88.801 170.940,84.961 171.398 C 81.264 171.839,81.757 172.094,81.049 169.376 C 80.277 166.412,80.258 166.475,81.934 166.300 C 85.837 165.892,85.646 165.814,87.059 168.384 M67.480 167.184 L 68.750 167.188 68.750 169.750 L 68.750 172.313 64.941 172.043 C 60.340 171.716,60.660 171.993,61.536 169.098 L 62.261 166.706 64.236 166.943 C 65.322 167.074,66.782 167.182,67.480 167.184 M78.641 169.227 C 79.388 172.191,79.743 171.903,75.030 172.162 L 71.094 172.379 71.094 169.803 L 71.094 167.226 73.340 167.086 C 78.593 166.756,77.953 166.497,78.641 169.227 M56.348 173.825 L 57.813 173.828 57.813 176.367 L 57.813 178.906 53.870 178.906 L 49.927 178.906 50.187 176.855 C 50.644 173.254,50.601 173.307,52.874 173.580 C 53.979 173.713,55.542 173.823,56.348 173.825 M68.262 174.822 C 68.567 174.918,68.750 175.711,68.750 176.941 L 68.750 178.906 64.453 178.906 L 60.156 178.906 60.156 176.823 C 60.156 175.677,60.251 174.645,60.367 174.529 C 60.589 174.307,67.428 174.561,68.262 174.822 M79.688 176.953 L 79.688 179.297 77.832 179.294 C 76.812 179.293,74.834 179.184,73.438 179.052 L 70.898 178.813 70.898 177.004 L 70.898 175.195 72.461 174.961 C 73.320 174.832,75.298 174.700,76.855 174.668 L 79.688 174.609 79.688 176.953 M58.202 183.887 C 58.447 185.122,58.722 186.398,58.813 186.723 C 58.951 187.216,54.378 188.673,52.696 188.672 C 52.200 188.672,50.399 183.555,50.393 182.129 C 50.391 181.773,51.387 181.641,54.074 181.641 L 57.757 181.641 58.202 183.887 M68.750 183.934 L 68.750 186.227 65.576 186.504 C 63.830 186.656,62.186 186.864,61.923 186.965 C 61.607 187.086,61.292 186.390,60.995 184.915 C 60.293 181.420,60.048 181.641,64.648 181.641 L 68.750 181.641 68.750 183.934 M79.223 182.218 C 79.469 182.464,78.590 186.802,78.219 187.167 C 78.060 187.323,77.139 187.298,76.172 187.110 C 75.205 186.922,73.579 186.658,72.559 186.524 L 70.703 186.280 70.703 183.901 L 70.703 181.522 74.870 181.777 C 77.162 181.917,79.121 182.115,79.223 182.218 M68.687 190.668 C 68.582 192.453,68.580 192.454,65.770 192.682 L 63.767 192.845 62.956 191.174 C 61.992 189.191,62.011 189.178,66.129 189.108 L 68.782 189.063 68.687 190.668 M76.365 189.683 L 77.320 189.922 76.593 191.348 L 75.867 192.773 73.285 192.642 L 70.703 192.511 70.703 190.731 L 70.703 188.951 73.057 189.197 C 74.351 189.333,75.840 189.551,76.365 189.683 M60.393 191.504 C 60.785 192.417,61.170 193.296,61.249 193.457 C 61.329 193.618,61.106 193.750,60.755 193.750 C 60.405 193.750,59.577 194.029,58.917 194.371 C 57.720 194.990,57.713 194.987,56.003 193.309 C 53.970 191.314,54.001 190.990,56.279 190.382 C 59.278 189.581,59.607 189.671,60.393 191.504 M68.389 195.029 C 68.373 195.185,68.351 196.147,68.342 197.168 L 68.324 199.023 66.570 197.070 L 64.816 195.117 66.295 194.883 C 68.013 194.610,68.429 194.639,68.389 195.029 M74.205 195.215 C 74.187 195.581,72.746 197.226,71.582 198.208 L 70.703 198.949 70.703 196.936 L 70.703 194.922 72.461 194.922 C 73.428 194.922,74.212 195.054,74.205 195.215 M63.242 196.906 C 64.388 198.456,64.223 198.559,62.114 197.615 C 59.967 196.653,59.843 196.531,60.558 196.078 C 61.570 195.439,62.331 195.673,63.242 196.906 M78.027 195.949 C 79.250 196.277,79.129 196.624,77.526 197.389 C 75.567 198.323,75.249 198.212,76.039 196.875 C 76.795 195.594,76.761 195.610,78.027 195.949 M56.810 243.945 C 56.810 249.316,56.865 251.568,56.932 248.949 C 57.000 246.329,57.000 241.935,56.933 239.183 C 56.865 236.431,56.810 238.574,56.810 243.945 M59.123 237.695 C 59.122 239.629,59.188 240.469,59.270 239.563 C 59.352 238.656,59.353 237.074,59.272 236.047 C 59.191 235.020,59.124 235.762,59.123 237.695 M113.388 238.281 C 113.388 239.248,113.464 239.644,113.557 239.160 C 113.650 238.677,113.650 237.886,113.557 237.402 C 113.464 236.919,113.388 237.314,113.388 238.281 M111.028 238.672 C 111.028 239.424,111.109 239.731,111.207 239.355 C 111.305 238.979,111.305 238.364,111.207 237.988 C 111.109 237.612,111.028 237.920,111.028 238.672 M82.973 246.875 C 82.973 250.635,83.032 252.173,83.103 250.293 C 83.175 248.413,83.175 245.337,83.103 243.457 C 83.032 241.577,82.973 243.115,82.973 246.875 M113.427 246.289 C 113.428 248.652,113.493 249.569,113.570 248.326 C 113.648 247.082,113.647 245.149,113.569 244.029 C 113.490 242.909,113.426 243.926,113.427 246.289 M111.078 246.484 C 111.078 248.525,111.144 249.360,111.225 248.340 C 111.305 247.319,111.305 245.649,111.225 244.629 C 111.144 243.608,111.078 244.443,111.078 246.484 M258.352 249.023 C 258.353 251.602,258.416 252.605,258.493 251.254 C 258.569 249.903,258.569 247.794,258.491 246.567 C 258.414 245.340,258.351 246.445,258.352 249.023 M59.130 249.414 C 59.131 251.777,59.196 252.694,59.273 251.451 C 59.351 250.207,59.351 248.274,59.272 247.154 C 59.193 246.034,59.130 247.051,59.130 249.414 M245.849 249.414 C 245.850 251.777,245.914 252.694,245.992 251.451 C 246.070 250.207,246.069 248.274,245.991 247.154 C 245.912 246.034,245.848 247.051,245.849 249.414 M300.091 246.875 C 300.091 247.627,300.171 247.935,300.269 247.559 C 300.368 247.183,300.368 246.567,300.269 246.191 C 300.171 245.815,300.091 246.123,300.091 246.875 M253.237 251.758 C 253.240 252.832,253.316 253.225,253.405 252.631 C 253.495 252.038,253.493 251.159,253.400 250.678 C 253.307 250.198,253.234 250.684,253.237 251.758 " stroke="none" fill="#06a948" fill-rule="evenodd"></path><path id="path1" d="M0.000 200.000 L 0.000 400.000 200.000 400.000 L 400.000 400.000 400.000 200.000 L 400.000 0.000 200.000 0.000 L 0.000 0.000 0.000 200.000 M74.802 133.020 C 86.025 135.338,95.609 145.682,99.031 159.171 C 101.775 169.990,101.097 178.055,96.419 190.226 C 92.452 200.546,91.348 206.539,92.315 212.518 L 92.602 214.293 86.321 216.372 C 82.867 217.516,79.957 218.369,79.856 218.267 C 79.355 217.766,79.077 212.385,79.346 208.384 C 79.753 202.311,80.992 198.020,85.135 188.324 C 89.688 177.671,90.257 175.658,90.503 169.336 C 91.094 154.161,82.403 140.374,70.898 138.237 C 64.285 137.008,59.940 138.222,44.922 145.497 C 30.025 152.714,20.529 156.352,19.560 155.214 C 19.404 155.032,18.608 153.037,17.791 150.781 C 16.973 148.525,15.800 145.674,15.183 144.445 C 13.665 141.417,13.525 141.556,18.377 141.262 C 24.387 140.897,31.959 139.439,41.797 136.753 C 55.170 133.102,58.431 132.532,66.325 132.468 C 69.985 132.438,72.905 132.628,74.802 133.020 M85.744 133.804 C 114.880 140.561,125.672 162.441,115.812 194.768 C 113.808 201.338,112.891 205.991,112.891 209.587 L 112.891 212.041 106.951 214.026 C 100.376 216.222,100.561 216.241,100.006 213.312 C 99.076 208.408,99.876 202.613,102.790 193.164 C 106.995 179.525,107.162 178.693,107.161 171.289 C 107.158 155.078,99.259 142.009,84.960 134.556 C 82.031 133.029,82.104 132.959,85.744 133.804 M214.952 136.061 C 222.934 140.739,218.856 155.590,207.993 161.405 C 202.219 164.496,199.252 162.978,202.992 158.846 C 209.561 151.589,210.981 143.480,205.759 143.043 C 201.052 142.650,195.323 149.135,187.880 163.281 C 177.912 182.227,175.928 185.596,171.542 191.016 L 169.172 193.945 170.426 194.267 C 171.115 194.443,174.404 195.881,177.734 197.461 C 191.625 204.052,194.576 203.915,202.312 196.316 C 207.139 191.574,208.984 190.822,208.984 193.595 C 208.984 197.434,201.333 206.764,195.313 210.266 C 187.017 215.092,181.094 214.758,172.032 208.954 C 162.066 202.570,160.006 201.980,155.782 204.302 C 143.278 211.173,138.774 212.125,135.755 208.538 C 131.515 203.499,140.509 195.679,152.987 193.556 C 155.104 193.195,156.859 192.872,156.887 192.837 C 157.718 191.810,161.108 185.553,165.006 177.850 C 173.462 161.142,176.837 155.857,183.647 148.661 C 194.144 137.569,208.005 131.990,214.952 136.061 M332.356 135.368 C 341.065 137.954,340.727 148.558,331.641 157.844 C 324.286 165.359,318.053 164.744,323.579 157.048 C 328.008 150.879,329.470 146.632,327.958 144.325 C 326.301 141.795,323.187 142.438,319.568 146.057 C 315.912 149.713,314.016 152.862,304.612 170.898 C 298.827 181.993,296.705 185.534,293.290 189.789 L 290.619 193.119 292.300 193.757 C 293.225 194.108,296.366 195.655,299.279 197.194 C 311.912 203.869,315.273 203.681,322.430 195.899 C 325.925 192.099,327.748 191.141,328.375 192.776 C 329.878 196.693,320.063 208.052,312.029 211.695 C 305.275 214.758,301.607 214.201,292.735 208.768 C 281.988 202.187,280.391 201.911,274.803 205.674 C 267.166 210.818,262.156 212.215,258.984 210.087 C 252.305 205.605,259.439 197.848,273.536 194.266 C 278.592 192.981,278.114 193.561,284.436 181.055 C 292.666 164.773,296.410 158.368,300.991 152.734 C 311.685 139.582,323.856 132.844,332.356 135.368 M70.950 142.115 C 71.518 142.432,71.286 142.665,69.504 143.563 C 63.985 146.345,58.252 150.840,49.597 159.170 C 38.714 169.646,27.714 177.165,20.618 178.981 C 18.178 179.605,18.124 179.484,19.113 175.608 C 19.799 172.919,20.665 165.952,20.697 162.866 C 20.701 162.440,21.641 161.984,23.796 161.361 C 28.045 160.134,33.875 157.240,43.555 151.554 C 59.480 142.199,66.672 139.721,70.950 142.115 M75.553 156.241 C 82.893 158.119,87.922 162.725,88.436 168.043 C 88.850 172.318,88.454 173.828,86.919 173.828 C 86.224 173.828,84.840 173.940,83.844 174.077 L 82.031 174.325 82.031 176.957 L 82.031 179.590 83.252 179.834 C 83.923 179.968,84.890 180.078,85.400 180.078 C 86.460 180.078,86.459 180.075,85.947 181.420 C 85.610 182.306,85.346 182.422,83.666 182.422 L 81.765 182.422 81.304 184.473 C 81.050 185.601,80.742 186.901,80.620 187.364 C 80.437 188.057,80.608 188.250,81.605 188.469 C 82.269 188.615,82.813 188.800,82.813 188.880 C 82.813 189.506,81.807 191.014,81.473 190.889 C 79.576 190.178,79.462 190.214,78.889 191.698 C 78.579 192.504,78.273 193.272,78.210 193.404 C 78.147 193.535,78.604 193.854,79.226 194.111 L 80.356 194.579 79.538 197.087 C 77.182 204.311,62.228 203.264,54.293 195.319 C 38.103 179.111,53.600 150.627,75.553 156.241 M71.094 161.302 L 71.094 164.453 73.828 164.453 C 75.332 164.453,76.563 164.316,76.563 164.149 C 76.563 163.327,73.916 160.179,72.168 158.922 L 71.094 158.150 71.094 161.302 M66.742 160.059 C 65.331 161.551,63.672 163.800,63.672 164.220 C 63.672 164.348,64.814 164.453,66.211 164.453 L 68.750 164.453 68.750 161.523 C 68.750 158.160,68.624 158.068,66.742 160.059 M61.369 160.360 C 57.104 162.638,56.767 163.195,59.362 163.669 L 60.942 163.958 62.511 161.610 C 64.434 158.730,64.429 158.725,61.369 160.360 M77.097 160.701 C 77.845 161.682,78.571 162.839,78.708 163.273 C 78.976 164.118,79.615 164.204,82.207 163.744 L 83.749 163.470 82.207 162.256 C 80.615 161.002,78.215 159.684,76.637 159.196 C 75.810 158.940,75.848 159.065,77.097 160.701 M362.291 161.075 C 363.820 162.192,363.142 163.744,353.989 180.078 C 345.966 194.397,345.113 196.162,345.691 197.243 C 347.525 200.670,356.022 192.169,366.275 176.651 C 374.585 164.072,374.978 163.654,379.917 162.128 C 382.354 161.374,386.111 160.981,386.562 161.432 C 386.701 161.571,383.121 168.767,378.606 177.424 C 368.572 196.665,367.578 198.647,367.578 199.417 C 367.578 200.437,368.656 200.511,369.964 199.580 C 371.408 198.551,375.276 196.898,376.270 196.884 C 380.767 196.823,368.675 207.798,362.017 209.820 C 355.030 211.943,352.665 209.322,354.655 201.660 C 355.060 200.103,355.306 198.828,355.202 198.828 C 355.099 198.828,352.963 200.470,350.456 202.478 C 341.469 209.674,338.813 211.143,335.312 210.853 C 330.376 210.443,329.134 205.531,331.989 197.709 C 334.240 191.540,347.628 166.374,349.359 165.057 C 353.497 161.910,360.489 159.757,362.291 161.075 M242.351 161.175 C 244.314 161.928,242.933 165.561,236.055 177.734 C 226.597 194.475,225.400 197.266,227.547 197.574 C 230.706 198.027,238.270 189.897,247.058 176.602 C 255.880 163.256,256.861 162.374,264.168 161.216 C 268.366 160.550,268.657 159.678,257.841 180.197 C 246.179 202.318,246.371 201.665,252.427 198.633 C 259.051 195.317,259.522 197.546,253.373 203.110 C 248.038 207.937,244.068 209.861,239.323 209.922 C 234.076 209.989,233.365 207.844,235.793 199.264 C 236.006 198.511,235.502 198.800,233.165 200.770 C 227.690 205.387,222.065 209.391,219.922 210.199 C 211.733 213.287,208.874 206.484,213.655 195.287 C 215.333 191.357,227.435 168.309,228.716 166.602 C 231.119 163.401,239.480 160.073,242.351 161.175 M53.331 167.671 C 51.024 171.095,51.047 171.116,57.271 171.265 C 58.171 171.286,60.231 167.132,59.621 166.522 C 59.497 166.398,55.545 165.625,55.035 165.625 C 54.855 165.625,54.088 166.546,53.331 167.671 M81.934 166.300 C 80.258 166.475,80.277 166.412,81.049 169.376 C 81.757 172.094,81.264 171.839,84.961 171.398 C 88.801 170.940,88.613 171.210,87.059 168.384 C 85.646 165.814,85.837 165.892,81.934 166.300 M61.536 169.098 C 60.660 171.993,60.340 171.716,64.941 172.043 L 68.750 172.313 68.750 169.750 L 68.750 167.188 67.480 167.184 C 66.782 167.182,65.322 167.074,64.236 166.943 L 62.261 166.706 61.536 169.098 M73.340 167.086 L 71.094 167.226 71.094 169.803 L 71.094 172.379 75.030 172.162 C 79.743 171.903,79.388 172.191,78.641 169.227 C 77.953 166.497,78.593 166.756,73.340 167.086 M46.013 174.316 C 45.800 175.229,45.715 177.939,45.826 180.338 L 46.026 184.699 43.114 187.920 C 39.497 191.922,39.476 191.844,44.974 194.922 C 47.468 196.318,51.114 198.553,53.076 199.888 C 57.191 202.687,59.432 203.485,64.060 203.801 L 67.379 204.028 65.623 204.775 C 59.491 207.385,55.430 207.218,47.602 204.037 L 41.992 201.758 35.547 201.735 C 28.066 201.708,27.329 201.486,24.024 198.260 C 19.500 193.842,19.615 193.535,27.734 188.390 C 35.770 183.298,42.510 177.830,44.964 174.414 C 46.505 172.269,46.492 172.270,46.013 174.316 M50.656 174.072 C 50.541 174.475,50.330 175.728,50.187 176.855 L 49.927 178.906 53.870 178.906 L 57.813 178.906 57.813 176.367 L 57.813 173.828 56.348 173.825 C 55.542 173.823,53.979 173.713,52.874 173.580 C 51.126 173.370,50.838 173.434,50.656 174.072 M60.367 174.529 C 60.251 174.645,60.156 175.677,60.156 176.823 L 60.156 178.906 64.453 178.906 L 68.750 178.906 68.750 176.941 C 68.750 175.711,68.567 174.918,68.262 174.822 C 67.428 174.561,60.589 174.307,60.367 174.529 M72.461 174.961 L 70.898 175.195 70.898 177.004 L 70.898 178.813 73.438 179.052 C 74.834 179.184,76.812 179.293,77.832 179.294 L 79.688 179.297 79.688 176.953 L 79.688 174.609 76.855 174.668 C 75.298 174.700,73.320 174.832,72.461 174.961 M50.393 182.129 C 50.399 183.555,52.200 188.672,52.696 188.672 C 54.378 188.673,58.951 187.216,58.813 186.723 C 58.722 186.398,58.447 185.122,58.202 183.887 L 57.757 181.641 54.074 181.641 C 51.387 181.641,50.391 181.773,50.393 182.129 M60.547 182.161 C 60.547 183.823,61.494 187.129,61.923 186.965 C 62.186 186.864,63.830 186.656,65.576 186.504 L 68.750 186.227 68.750 183.934 L 68.750 181.641 64.648 181.641 C 61.491 181.641,60.547 181.761,60.547 182.161 M70.703 183.901 L 70.703 186.280 72.559 186.524 C 73.579 186.658,75.205 186.922,76.172 187.110 C 78.309 187.526,78.395 187.450,78.959 184.642 C 79.517 181.864,79.824 182.080,74.870 181.777 L 70.703 181.522 70.703 183.901 M62.810 189.328 C 62.197 189.490,62.209 189.637,62.956 191.174 L 63.767 192.845 65.770 192.682 C 68.580 192.454,68.582 192.453,68.687 190.668 L 68.782 189.063 66.129 189.108 C 64.670 189.133,63.177 189.232,62.810 189.328 M70.703 190.731 L 70.703 192.511 73.285 192.642 L 75.867 192.773 76.593 191.348 L 77.320 189.922 76.365 189.683 C 75.840 189.551,74.351 189.333,73.057 189.197 L 70.703 188.951 70.703 190.731 M56.279 190.382 C 54.001 190.990,53.970 191.314,56.003 193.309 C 57.713 194.987,57.720 194.990,58.917 194.371 C 59.577 194.029,60.405 193.750,60.755 193.750 C 61.106 193.750,61.329 193.618,61.249 193.457 C 61.170 193.296,60.785 192.417,60.393 191.504 C 59.607 189.671,59.278 189.581,56.279 190.382 M66.295 194.883 L 64.816 195.117 66.570 197.070 L 68.324 199.023 68.342 197.168 C 68.351 196.147,68.373 195.185,68.389 195.029 C 68.429 194.639,68.013 194.610,66.295 194.883 M70.703 196.936 L 70.703 198.949 71.582 198.208 C 72.746 197.226,74.187 195.581,74.205 195.215 C 74.212 195.054,73.428 194.922,72.461 194.922 L 70.703 194.922 70.703 196.936 M60.558 196.078 C 59.843 196.531,59.967 196.653,62.114 197.615 C 64.223 198.559,64.388 198.456,63.242 196.906 C 62.331 195.673,61.570 195.439,60.558 196.078 M76.039 196.875 C 75.249 198.212,75.567 198.323,77.526 197.389 C 79.129 196.624,79.250 196.277,78.027 195.949 C 76.761 195.610,76.795 195.594,76.039 196.875 M195.703 243.990 L 195.703 253.516 194.531 253.516 L 193.359 253.516 193.359 243.818 L 193.359 234.120 194.531 234.292 L 195.703 234.464 195.703 243.990 M59.315 238.026 L 59.180 241.677 60.277 240.865 C 64.414 237.804,67.160 241.166,67.178 249.316 L 67.188 253.516 66.016 253.516 L 64.844 253.516 64.844 249.206 C 64.844 243.679,64.314 242.188,62.353 242.188 C 59.918 242.188,59.375 243.408,59.375 248.881 L 59.375 253.516 58.008 253.516 L 56.641 253.516 56.641 243.945 L 56.641 234.375 58.046 234.375 L 59.450 234.375 59.315 238.026 M121.094 238.154 L 121.094 241.933 121.973 241.135 C 125.927 237.545,128.906 240.674,128.906 248.418 L 128.906 253.516 127.734 253.516 L 126.563 253.516 126.563 248.720 C 126.563 243.693,126.227 242.497,124.704 242.099 C 122.206 241.446,121.094 243.695,121.094 249.402 L 121.094 253.516 119.922 253.516 L 118.750 253.516 118.750 243.945 L 118.750 234.375 119.922 234.375 L 121.094 234.375 121.094 238.154 M209.766 243.945 L 209.766 253.516 208.594 253.516 C 207.651 253.516,207.422 253.350,207.422 252.666 L 207.422 251.817 206.448 252.731 C 204.302 254.748,200.688 253.610,199.364 250.501 C 196.766 244.404,202.245 237.070,206.448 241.019 L 207.422 241.933 207.422 238.154 L 207.422 234.375 208.594 234.375 L 209.766 234.375 209.766 243.945 M332.813 238.154 L 332.813 241.933 333.691 241.113 C 337.610 237.455,340.625 240.720,340.625 248.620 L 340.625 253.516 339.453 253.516 L 338.281 253.516 338.281 248.676 C 338.281 243.238,337.845 242.090,335.778 242.090 C 333.524 242.090,333.022 243.224,332.878 248.643 L 332.749 253.516 331.609 253.516 L 330.469 253.516 330.469 243.945 L 330.469 234.375 331.641 234.375 L 332.813 234.375 332.813 238.154 M36.495 238.574 C 36.869 240.239,37.583 243.505,38.083 245.830 C 38.972 249.967,39.453 251.331,39.453 249.713 C 39.453 249.269,40.069 246.296,40.822 243.105 C 41.574 239.915,42.283 236.899,42.397 236.404 C 42.579 235.614,42.805 235.518,44.241 235.623 L 45.878 235.742 47.345 242.383 C 48.151 246.035,48.815 249.360,48.820 249.772 C 48.840 251.564,49.477 249.506,50.957 242.860 L 52.543 235.742 53.863 235.616 C 54.829 235.523,55.133 235.628,54.995 236.006 C 54.891 236.291,53.860 240.347,52.705 245.020 L 50.604 253.516 49.157 253.516 C 48.117 253.516,47.651 253.323,47.503 252.832 C 47.016 251.220,44.531 239.650,44.531 238.997 C 44.531 237.032,43.832 238.790,42.835 243.263 C 42.224 246.001,41.458 249.429,41.132 250.879 L 40.540 253.516 39.055 253.516 L 37.570 253.516 36.775 250.098 C 36.338 248.218,35.378 244.175,34.642 241.113 L 33.303 235.547 34.560 235.547 C 35.809 235.547,35.821 235.566,36.495 238.574 M113.611 238.477 L 113.471 240.234 114.939 240.234 C 116.244 240.234,116.406 240.343,116.406 241.211 C 116.406 242.068,116.238 242.188,115.027 242.188 L 113.647 242.188 113.757 246.777 L 113.867 251.367 115.137 251.490 C 117.528 251.720,116.930 253.516,114.462 253.516 C 111.595 253.516,111.158 252.670,111.043 246.892 L 110.952 242.383 109.871 242.188 C 108.152 241.877,108.166 240.234,109.887 240.234 C 111.116 240.234,111.165 240.178,111.017 238.912 C 110.882 237.753,110.999 237.540,111.974 237.185 C 113.698 236.557,113.760 236.606,113.611 238.477 M295.703 238.477 L 295.703 240.234 297.217 240.234 C 298.571 240.234,298.730 240.337,298.730 241.211 C 298.730 242.085,298.571 242.188,297.217 242.188 L 295.703 242.188 295.703 246.257 C 295.703 251.259,295.806 251.563,297.503 251.563 C 298.656 251.563,298.828 251.689,298.828 252.539 C 298.828 253.445,298.693 253.515,296.973 253.510 C 293.762 253.499,293.359 252.740,293.359 246.705 L 293.359 242.188 292.188 242.188 C 291.198 242.188,291.016 242.036,291.016 241.211 C 291.016 240.386,291.198 240.234,292.188 240.234 C 293.256 240.234,293.359 240.119,293.359 238.927 C 293.359 237.957,293.586 237.510,294.238 237.196 C 295.615 236.532,295.703 236.609,295.703 238.477 M77.774 240.740 C 78.842 241.407,79.708 243.219,79.955 245.305 L 80.187 247.266 76.226 247.266 C 71.826 247.266,71.551 247.485,72.837 249.972 C 73.665 251.572,76.619 252.187,78.541 251.158 C 79.208 250.801,79.297 250.888,79.297 251.894 C 79.297 253.903,74.423 254.294,72.242 252.460 C 66.636 247.742,71.724 236.962,77.774 240.740 M88.835 240.081 C 90.094 240.564,89.604 242.448,88.220 242.448 C 85.931 242.448,84.763 246.049,85.214 251.720 C 85.357 253.515,85.357 253.516,84.085 253.516 L 82.813 253.516 82.813 246.875 L 82.813 240.234 83.984 240.234 C 84.927 240.234,85.156 240.400,85.156 241.084 L 85.156 241.933 86.035 241.133 C 86.519 240.694,87.178 240.237,87.500 240.120 C 87.822 240.002,88.116 239.892,88.152 239.875 C 88.188 239.858,88.495 239.950,88.835 240.081 M98.496 240.749 C 99.554 241.406,100.781 244.133,100.781 245.826 L 100.781 247.266 96.875 247.266 C 92.682 247.266,92.568 247.332,93.327 249.328 C 94.125 251.429,97.049 252.333,99.244 251.158 C 99.911 250.801,100.000 250.888,100.000 251.894 C 100.000 253.903,95.126 254.294,92.946 252.460 C 87.344 247.747,92.442 236.993,98.496 240.749 M139.758 240.856 C 140.940 241.631,141.797 243.663,141.797 245.691 L 141.797 247.266 138.086 247.266 L 134.375 247.266 134.375 248.455 C 134.375 250.917,137.785 252.483,140.260 251.158 C 140.927 250.801,141.016 250.888,141.016 251.898 C 141.016 254.867,134.248 253.909,132.566 250.701 C 129.479 244.811,134.760 237.582,139.758 240.856 M178.882 240.972 C 181.476 242.818,182.402 246.721,181.072 250.204 C 179.324 254.782,173.072 255.063,171.070 250.653 C 168.167 244.259,173.760 237.328,178.882 240.972 M190.398 240.081 C 191.383 240.459,191.239 242.702,190.249 242.387 C 187.949 241.657,186.719 244.169,186.719 249.597 L 186.719 253.516 185.547 253.516 L 184.375 253.516 184.375 246.875 L 184.375 240.234 185.547 240.234 C 186.490 240.234,186.719 240.400,186.719 241.084 L 186.719 241.933 187.598 241.133 C 188.081 240.694,188.740 240.237,189.063 240.120 C 189.385 240.002,189.678 239.892,189.714 239.875 C 189.750 239.858,190.058 239.950,190.398 240.081 M227.404 240.467 C 228.561 241.182,227.693 242.498,226.195 242.297 C 223.019 241.871,221.098 243.490,221.095 246.595 C 221.092 250.121,222.704 251.770,225.859 251.467 C 228.495 251.214,228.644 253.133,226.022 253.556 C 221.701 254.252,218.750 251.541,218.750 246.875 C 218.750 241.833,223.693 238.173,227.404 240.467 M238.166 240.908 C 240.449 242.405,241.426 247.608,239.991 250.632 C 237.496 255.889,230.143 254.159,229.431 248.148 C 228.712 242.073,233.670 237.963,238.166 240.908 M270.533 240.415 C 272.131 241.083,273.415 243.472,273.429 245.801 L 273.438 247.266 269.500 247.266 L 265.563 247.266 265.831 248.535 C 266.396 251.205,268.763 252.281,271.654 251.182 C 272.585 250.828,272.656 250.880,272.656 251.917 C 272.656 253.857,267.770 254.284,265.683 252.528 C 260.353 248.043,264.428 237.864,270.533 240.415 M282.482 240.467 C 283.766 241.260,282.751 242.457,280.942 242.284 C 277.588 241.961,277.089 244.052,280.126 245.703 C 283.465 247.518,284.270 249.122,283.038 251.503 C 281.590 254.304,275.781 254.635,275.781 251.916 C 275.781 250.888,275.868 250.800,276.537 251.158 C 278.328 252.117,281.250 251.302,281.250 249.845 C 281.250 249.210,279.825 247.916,278.246 247.118 C 273.828 244.886,275.688 239.363,280.627 240.051 C 281.466 240.167,282.301 240.355,282.482 240.467 M308.984 240.979 C 311.527 242.812,312.423 247.862,310.721 250.769 C 307.390 256.458,300.215 253.807,300.239 246.897 C 300.258 241.210,304.925 238.052,308.984 240.979 M326.623 240.467 C 327.876 241.242,326.891 242.378,325.075 242.253 C 321.994 242.039,321.287 243.843,323.909 245.229 C 327.475 247.115,328.685 249.858,326.932 252.086 C 326.135 253.100,323.615 254.066,322.600 253.747 C 322.309 253.656,321.587 253.475,320.996 253.345 C 320.107 253.151,319.922 252.902,319.922 251.904 C 319.922 250.900,320.036 250.749,320.605 251.001 C 325.022 252.962,327.214 249.691,323.015 247.406 C 319.328 245.399,318.813 241.830,322.003 240.395 C 323.141 239.883,325.744 239.924,326.623 240.467 M352.047 240.875 C 354.436 242.096,355.544 247.490,354.052 250.635 C 351.599 255.804,344.458 254.368,343.522 248.517 C 342.529 242.306,347.001 238.297,352.047 240.875 M365.951 240.889 C 369.125 242.902,369.052 250.848,365.840 252.953 C 364.341 253.935,361.902 253.824,360.726 252.720 L 359.766 251.817 359.766 255.401 L 359.766 258.984 358.594 258.984 L 357.422 258.984 357.422 249.609 L 357.422 240.234 358.398 240.234 C 359.115 240.234,359.375 240.443,359.375 241.016 C 359.375 241.445,359.551 241.797,359.766 241.797 C 359.980 241.797,360.156 241.613,360.156 241.387 C 360.156 240.021,364.053 239.686,365.951 240.889 M153.977 245.594 L 155.311 250.954 156.390 246.864 C 158.202 239.991,158.086 240.234,159.558 240.234 C 160.961 240.234,160.984 240.289,162.951 248.242 C 163.696 251.252,163.801 251.125,165.222 245.500 C 166.535 240.303,166.566 240.234,167.651 240.234 C 168.255 240.234,168.750 240.352,168.750 240.496 C 168.750 240.710,166.114 250.372,165.384 252.832 C 165.239 253.324,164.775 253.516,163.731 253.516 L 162.280 253.516 160.884 248.015 L 159.487 242.514 158.635 245.964 C 156.719 253.725,156.788 253.576,155.190 253.441 L 153.774 253.320 151.944 246.777 L 150.114 240.234 151.378 240.234 L 152.643 240.234 153.977 245.594 M245.703 241.044 L 245.703 241.854 246.732 241.044 C 248.210 239.881,250.761 239.942,251.912 241.167 L 252.788 242.100 253.795 241.167 C 255.309 239.764,257.889 239.860,259.405 241.376 L 260.547 242.518 260.547 248.017 L 260.547 253.516 259.375 253.516 L 258.203 253.516 258.203 248.465 C 258.203 243.024,257.923 242.188,256.101 242.188 C 253.830 242.188,252.909 244.983,253.366 250.488 L 253.617 253.516 252.394 253.516 L 251.172 253.516 251.166 248.926 C 251.159 243.582,250.782 242.442,248.962 242.264 C 246.697 242.042,246.094 243.434,246.094 248.881 L 246.094 253.516 244.922 253.516 L 243.750 253.516 243.750 246.875 L 243.750 240.234 244.727 240.234 C 245.454 240.234,245.703 240.441,245.703 241.044 M73.970 242.258 C 73.121 242.665,72.266 244.109,72.266 245.136 C 72.266 245.579,72.875 245.703,75.049 245.703 L 77.832 245.703 77.579 244.439 C 77.175 242.419,75.609 241.472,73.970 242.258 M94.138 242.911 C 92.067 244.982,92.484 245.703,95.752 245.703 L 98.535 245.703 98.282 244.439 C 97.775 241.903,95.854 241.195,94.138 242.911 M136.061 242.190 C 133.242 243.326,133.820 245.703,136.914 245.703 C 139.841 245.703,140.400 244.661,138.494 242.756 C 137.449 241.711,137.323 241.682,136.061 242.190 M203.133 242.299 C 200.016 243.876,200.674 251.563,203.926 251.563 C 206.990 251.563,208.518 247.544,206.817 243.961 C 205.958 242.151,204.619 241.547,203.133 242.299 M234.180 242.166 C 230.011 243.872,231.473 252.474,235.791 251.649 C 238.888 251.057,239.161 243.339,236.126 242.185 C 235.565 241.972,235.073 241.808,235.033 241.822 C 234.993 241.835,234.609 241.990,234.180 242.166 M267.053 242.676 C 266.525 243.159,265.984 244.038,265.852 244.629 L 265.610 245.703 268.352 245.703 C 271.493 245.703,272.092 244.713,270.135 242.756 C 268.947 241.568,268.281 241.551,267.053 242.676 M304.808 242.195 C 301.292 243.596,302.223 251.693,305.899 251.693 C 308.128 251.693,309.093 250.070,308.919 246.616 C 308.732 242.912,307.184 241.248,304.808 242.195 M348.047 242.296 C 343.939 244.349,345.967 253.170,350.178 251.569 C 353.032 250.484,353.017 243.544,350.158 242.242 C 348.992 241.710,349.232 241.704,348.047 242.296 M362.248 242.094 C 359.935 242.473,358.849 247.628,360.520 250.293 C 362.459 253.384,366.012 251.300,366.014 247.070 C 366.015 243.736,364.494 241.725,362.248 242.094 M174.139 242.658 C 171.788 244.443,172.319 250.452,174.923 251.531 C 177.508 252.601,179.587 249.969,179.176 246.147 C 178.839 243.016,176.134 241.143,174.139 242.658 " stroke="none" fill="#fbfbfb" fill-rule="evenodd"></path><path id="path2" d="M58.594 132.846 C 54.304 133.511,50.032 134.505,41.797 136.753 C 31.959 139.439,24.387 140.897,18.377 141.262 C 13.525 141.556,13.665 141.417,15.183 144.445 C 15.800 145.674,16.973 148.525,17.791 150.781 C 18.608 153.037,19.404 155.032,19.560 155.214 C 20.529 156.352,30.025 152.714,44.922 145.497 C 59.940 138.222,64.285 137.008,70.898 138.237 C 82.403 140.374,91.094 154.161,90.503 169.336 C 90.257 175.658,89.688 177.671,85.135 188.324 C 80.992 198.020,79.753 202.311,79.346 208.384 C 79.077 212.385,79.355 217.766,79.856 218.267 C 79.957 218.369,82.867 217.516,86.321 216.372 L 92.602 214.293 92.315 212.518 C 91.348 206.539,92.452 200.546,96.419 190.226 C 102.025 175.641,102.010 163.730,96.370 151.824 C 89.075 136.423,76.447 130.079,58.594 132.846 M84.960 134.556 C 99.259 142.009,107.158 155.078,107.161 171.289 C 107.162 178.693,106.995 179.525,102.790 193.164 C 99.876 202.613,99.076 208.408,100.006 213.312 C 100.561 216.241,100.376 216.222,106.951 214.026 L 112.891 212.041 112.891 209.587 C 112.891 205.991,113.808 201.338,115.812 194.768 C 125.672 162.441,114.880 140.561,85.744 133.804 C 82.104 132.959,82.031 133.029,84.960 134.556 M64.332 141.792 C 59.266 142.703,56.056 144.211,43.555 151.554 C 33.875 157.240,28.045 160.134,23.796 161.361 C 21.641 161.984,20.701 162.440,20.697 162.866 C 20.665 165.952,19.799 172.919,19.113 175.608 C 18.124 179.484,18.178 179.605,20.618 178.981 C 27.714 177.165,38.714 169.646,49.597 159.170 C 58.252 150.840,63.985 146.345,69.504 143.563 C 72.600 142.002,69.350 140.889,64.332 141.792 M44.964 174.414 C 42.510 177.830,35.770 183.298,27.734 188.390 C 19.615 193.535,19.500 193.842,24.024 198.260 C 27.329 201.486,28.066 201.708,35.547 201.735 L 41.992 201.758 47.602 204.037 C 55.430 207.218,59.491 207.385,65.623 204.775 L 67.379 204.028 64.060 203.801 C 59.432 203.485,57.191 202.687,53.076 199.888 C 51.114 198.553,47.468 196.318,44.974 194.922 C 39.476 191.844,39.497 191.922,43.114 187.920 L 46.026 184.699 45.826 180.338 C 45.715 177.939,45.800 175.229,46.013 174.316 C 46.492 172.270,46.505 172.269,44.964 174.414 " stroke="none" fill="#fb2922" fill-rule="evenodd"></path><path id="path3" d="M57.031 243.945 L 57.031 253.516 57.967 253.516 C 58.892 253.516,58.904 253.466,59.049 248.926 C 59.210 243.902,59.726 242.478,61.552 242.020 C 64.070 241.388,64.844 243.039,64.844 249.049 L 64.844 253.516 66.016 253.516 L 67.188 253.516 67.185 250.098 C 67.182 244.970,66.631 242.170,65.418 241.113 C 64.090 239.956,61.438 239.906,60.246 241.016 C 59.008 242.169,58.984 242.115,58.984 238.086 C 58.984 234.388,58.981 234.375,58.008 234.375 L 57.031 234.375 57.031 243.945 M118.750 243.945 L 118.750 253.516 119.890 253.516 L 121.030 253.516 121.160 248.598 C 121.287 243.764,121.308 243.665,122.385 242.739 C 125.322 240.215,126.563 241.906,126.563 248.438 L 126.563 253.516 127.734 253.516 L 128.906 253.516 128.906 248.620 C 128.906 241.717,128.160 240.234,124.688 240.234 C 123.726 240.234,122.768 240.537,122.123 241.044 L 121.094 241.854 121.094 238.114 L 121.094 234.375 119.922 234.375 L 118.750 234.375 118.750 243.945 M193.359 243.945 L 193.359 253.516 194.531 253.516 L 195.703 253.516 195.703 243.945 L 195.703 234.375 194.531 234.375 L 193.359 234.375 193.359 243.945 M207.422 238.114 L 207.422 241.854 206.393 241.044 C 202.985 238.363,198.845 241.561,198.845 246.875 C 198.845 252.158,202.985 255.387,206.357 252.734 C 206.903 252.305,207.454 251.953,207.581 251.953 C 207.708 251.953,207.813 252.305,207.813 252.734 C 207.813 253.307,208.073 253.516,208.789 253.516 L 209.766 253.516 209.766 243.945 L 209.766 234.375 208.594 234.375 L 207.422 234.375 207.422 238.114 M330.469 243.945 L 330.469 253.516 331.609 253.516 L 332.749 253.516 332.878 248.598 C 333.006 243.764,333.026 243.665,334.104 242.739 C 336.981 240.266,338.281 242.078,338.281 248.560 L 338.281 253.516 339.453 253.516 L 340.625 253.516 340.625 248.658 C 340.625 243.547,340.378 242.332,339.078 241.031 C 337.943 239.896,334.950 239.925,333.717 241.084 L 332.813 241.933 332.813 238.154 L 332.813 234.375 331.641 234.375 L 330.469 234.375 330.469 243.945 M35.511 244.531 L 37.686 253.516 39.097 253.516 L 40.509 253.516 42.223 245.719 C 43.166 241.430,44.042 238.047,44.171 238.199 C 44.299 238.352,44.802 240.322,45.288 242.578 C 45.774 244.834,46.521 248.218,46.949 250.098 L 47.726 253.516 49.156 253.512 L 50.586 253.508 52.771 244.527 L 54.956 235.547 53.860 235.547 C 52.593 235.547,52.688 235.283,50.760 244.141 C 49.314 250.781,49.161 251.291,48.941 250.195 C 48.504 248.024,46.026 236.823,45.852 236.230 C 45.705 235.734,45.242 235.547,44.155 235.547 L 42.659 235.547 41.681 239.746 C 41.143 242.056,40.380 245.396,39.984 247.168 C 39.296 250.252,38.672 251.369,38.672 249.517 C 38.672 249.037,38.022 245.697,37.228 242.095 L 35.783 235.547 34.559 235.547 L 33.335 235.547 35.511 244.531 M112.207 237.225 C 111.549 237.520,111.328 237.948,111.328 238.927 C 111.328 240.119,111.225 240.234,110.156 240.234 C 109.167 240.234,108.984 240.386,108.984 241.211 C 108.984 242.036,109.167 242.188,110.156 242.188 L 111.328 242.188 111.328 247.070 C 111.328 252.867,111.662 253.516,114.648 253.516 C 116.263 253.516,116.406 253.436,116.406 252.539 C 116.406 251.717,116.223 251.563,115.248 251.563 C 113.605 251.563,113.281 250.666,113.281 246.119 L 113.281 242.188 114.844 242.188 C 116.250 242.188,116.406 242.090,116.406 241.211 C 116.406 240.334,116.249 240.234,114.865 240.234 C 113.325 240.234,113.324 240.234,113.205 238.532 C 113.093 236.925,113.037 236.852,112.207 237.225 M294.434 237.205 C 293.542 237.504,293.359 237.792,293.359 238.900 C 293.359 240.122,293.261 240.234,292.188 240.234 C 291.198 240.234,291.016 240.386,291.016 241.211 C 291.016 242.030,291.200 242.188,292.156 242.188 L 293.296 242.188 293.425 247.031 C 293.582 252.894,293.970 253.625,296.824 253.436 C 298.919 253.297,299.704 251.590,297.645 251.648 C 295.815 251.700,295.703 251.412,295.703 246.657 L 295.703 242.188 297.070 242.188 C 298.268 242.188,298.438 242.067,298.438 241.211 C 298.438 240.358,298.267 240.234,297.092 240.234 C 295.783 240.234,295.743 240.188,295.627 238.539 C 295.510 236.878,295.486 236.852,294.434 237.205 M72.310 240.872 C 67.878 243.976,69.973 253.516,75.086 253.516 C 78.344 253.516,79.297 253.161,79.297 251.950 L 79.297 250.873 77.687 251.427 C 74.872 252.397,72.266 250.781,72.266 248.066 C 72.266 247.313,72.494 247.266,76.172 247.266 C 80.592 247.266,80.504 247.350,79.640 243.918 C 78.821 240.666,74.919 239.045,72.310 240.872 M83.203 246.875 L 83.203 253.516 84.180 253.516 C 85.151 253.516,85.156 253.496,85.158 249.902 C 85.162 244.276,86.379 241.655,88.653 242.377 C 89.341 242.595,89.453 242.463,89.453 241.433 C 89.453 239.776,87.221 239.668,85.966 241.264 L 85.156 242.293 85.156 241.264 C 85.156 240.426,84.974 240.234,84.180 240.234 L 83.203 240.234 83.203 246.875 M93.013 240.872 C 89.861 243.080,89.954 250.139,93.168 252.667 C 95.198 254.265,100.000 253.719,100.000 251.891 C 100.000 250.877,99.916 250.799,99.222 251.170 C 96.428 252.665,92.969 250.948,92.969 248.066 C 92.969 247.313,93.198 247.266,96.875 247.266 C 101.295 247.266,101.207 247.350,100.343 243.918 C 99.524 240.666,95.622 239.045,93.013 240.872 M134.225 241.050 C 130.974 243.607,131.165 250.722,134.539 252.779 C 136.864 254.197,141.016 253.668,141.016 251.953 L 141.016 250.873 139.505 251.393 C 136.887 252.295,134.814 251.112,134.155 248.340 L 133.900 247.266 137.848 247.266 L 141.797 247.266 141.797 245.688 C 141.797 241.206,137.428 238.530,134.225 241.050 M150.391 240.627 C 150.391 241.016,152.790 249.799,153.565 252.246 C 153.914 253.349,154.140 253.516,155.289 253.516 C 156.745 253.516,156.542 253.922,158.008 248.047 C 158.356 246.650,158.829 244.805,159.060 243.945 L 159.478 242.383 160.898 247.852 L 162.318 253.320 163.716 253.438 L 165.115 253.556 166.761 247.579 C 167.667 244.291,168.500 241.281,168.614 240.889 C 168.785 240.299,168.629 240.198,167.711 240.303 C 166.630 240.426,166.565 240.571,165.185 245.898 C 164.405 248.906,163.676 251.104,163.565 250.781 C 163.454 250.459,162.791 247.954,162.093 245.215 L 160.823 240.234 159.531 240.234 C 158.080 240.234,158.353 239.631,156.396 247.155 L 155.303 251.355 153.935 245.794 C 152.582 240.300,152.553 240.234,151.478 240.234 C 150.880 240.234,150.391 240.411,150.391 240.627 M172.480 241.442 C 169.197 244.325,169.845 251.637,173.519 253.159 C 178.774 255.336,183.316 249.811,181.081 243.960 C 179.613 240.117,175.395 238.882,172.480 241.442 M184.375 246.875 L 184.375 253.516 185.506 253.516 L 186.636 253.516 186.775 248.860 C 186.929 243.715,187.732 241.917,189.707 242.294 C 190.390 242.425,190.586 242.241,190.717 241.345 C 190.948 239.771,188.746 239.715,187.528 241.264 L 186.719 242.293 186.719 241.264 C 186.719 240.380,186.552 240.234,185.547 240.234 L 184.375 240.234 184.375 246.875 M221.237 241.199 C 215.513 245.756,220.425 255.846,227.116 253.279 C 228.851 252.613,227.787 251.299,225.657 251.475 C 222.393 251.746,221.289 250.594,221.289 246.918 C 221.289 242.853,223.076 241.328,226.687 242.308 C 227.720 242.588,227.781 242.539,227.664 241.518 C 227.479 239.908,223.130 239.691,221.237 241.199 M231.447 241.522 C 226.084 246.885,231.437 256.267,237.941 252.904 C 241.471 251.078,241.468 242.996,237.936 240.909 C 235.915 239.716,232.976 239.993,231.447 241.522 M243.750 246.875 L 243.750 253.516 244.685 253.516 C 245.612 253.516,245.622 253.470,245.760 248.908 C 245.925 243.410,246.446 242.188,248.620 242.188 C 250.807 242.188,251.172 243.121,251.172 248.720 L 251.172 253.516 252.148 253.516 L 253.125 253.516 253.126 249.316 C 253.126 244.025,253.746 242.445,255.893 242.265 C 258.104 242.080,258.378 242.725,258.535 248.497 L 258.672 253.516 259.638 253.516 L 260.605 253.516 260.478 247.817 C 260.352 242.123,260.351 242.117,259.256 241.176 C 257.749 239.882,255.535 239.901,253.965 241.222 L 252.791 242.209 251.804 241.222 C 250.539 239.957,248.218 239.876,246.732 241.044 L 245.703 241.854 245.703 241.044 C 245.703 240.441,245.454 240.234,244.727 240.234 L 243.750 240.234 243.750 246.875 M265.306 241.395 C 262.391 244.310,262.859 250.755,266.132 252.750 C 268.503 254.196,272.656 253.688,272.656 251.953 L 272.656 250.873 271.141 251.395 C 268.943 252.152,267.067 251.554,266.252 249.836 C 265.073 247.351,265.181 247.266,269.531 247.266 L 273.438 247.266 273.435 246.191 C 273.425 241.026,268.551 238.150,265.306 241.395 M276.740 241.193 C 274.855 243.078,275.658 245.576,278.699 247.293 C 282.673 249.536,281.567 252.866,277.333 251.407 L 275.781 250.873 275.781 251.991 C 275.781 253.347,276.787 253.706,279.782 253.418 C 284.462 252.969,284.898 248.516,280.513 245.960 C 276.894 243.849,277.413 241.791,281.446 242.262 C 282.641 242.401,282.813 242.313,282.813 241.565 C 282.813 239.871,278.336 239.597,276.740 241.193 M302.898 240.971 C 299.587 242.991,299.431 250.382,302.653 252.676 C 305.249 254.525,309.609 253.359,310.805 250.496 C 312.880 245.530,310.329 240.237,305.859 240.237 C 304.827 240.237,303.605 240.540,302.898 240.971 M321.190 241.010 C 319.055 242.999,319.700 245.084,323.159 247.373 C 326.982 249.903,324.735 253.330,320.677 251.158 C 320.010 250.801,319.922 250.888,319.922 251.898 C 319.922 253.271,320.433 253.516,323.304 253.516 C 328.300 253.516,329.484 248.382,325.015 246.101 C 321.239 244.175,321.684 241.060,325.581 242.136 C 326.972 242.520,326.998 242.507,326.879 241.479 C 326.711 240.023,322.611 239.686,321.190 241.010 M345.509 241.522 C 340.198 246.834,345.503 256.265,351.933 252.940 C 354.260 251.737,355.454 246.730,354.155 243.622 C 352.677 240.086,348.066 238.966,345.509 241.522 M357.422 249.609 L 357.422 258.984 358.594 258.984 L 359.766 258.984 359.766 255.440 L 359.766 251.896 360.795 252.706 C 364.524 255.639,368.833 251.636,368.235 245.794 C 367.740 240.962,363.423 238.455,360.471 241.284 L 359.375 242.334 359.375 241.284 C 359.375 240.425,359.198 240.234,358.398 240.234 L 357.422 240.234 357.422 249.609 M76.776 242.756 C 78.731 244.711,78.133 245.703,75.000 245.703 C 71.981 245.703,71.762 245.467,72.843 243.375 C 73.791 241.543,75.322 241.302,76.776 242.756 M97.479 242.756 C 99.434 244.711,98.836 245.703,95.703 245.703 C 92.684 245.703,92.465 245.467,93.546 243.375 C 94.494 241.543,96.025 241.302,97.479 242.756 M138.672 242.578 C 139.102 243.008,139.453 243.609,139.453 243.913 C 139.453 244.218,139.560 244.745,139.690 245.085 C 139.894 245.615,139.505 245.703,136.956 245.703 C 135.322 245.703,133.984 245.610,133.984 245.495 C 133.984 242.849,137.041 240.947,138.672 242.578 M177.142 242.185 C 181.114 243.695,179.282 252.818,175.212 251.797 C 172.094 251.014,171.711 243.407,174.727 242.192 C 175.865 241.734,175.955 241.734,177.142 242.185 M205.267 242.185 C 208.314 243.343,208.015 251.007,204.892 251.790 C 201.563 252.626,199.547 245.706,202.314 242.939 C 203.576 241.677,203.788 241.623,205.267 242.185 M236.350 242.199 C 238.100 243.136,238.939 247.701,237.782 249.988 C 235.913 253.681,231.641 251.515,231.641 246.875 C 231.641 243.267,233.989 240.935,236.350 242.199 M270.135 242.756 C 272.101 244.721,271.495 245.703,268.317 245.703 L 265.540 245.703 265.793 244.629 C 266.370 242.171,268.592 241.212,270.135 242.756 M307.616 242.676 C 310.440 245.111,309.106 251.953,305.808 251.953 C 304.531 251.953,302.897 250.002,302.596 248.118 C 301.886 243.677,304.939 240.367,307.616 242.676 M350.412 242.199 C 353.183 243.682,352.873 250.846,349.998 251.758 C 347.819 252.450,345.703 250.057,345.703 246.901 C 345.703 243.192,347.994 240.905,350.412 242.199 M364.084 242.199 C 367.362 243.953,366.389 251.693,362.891 251.693 C 360.699 251.693,359.961 250.468,359.961 246.830 C 359.961 242.753,361.626 240.883,364.084 242.199 " stroke="none" fill="#161616" fill-rule="evenodd"></path></g></svg>